<svg width="622" height="118" xmlns="http://www.w3.org/2000/svg"><g fill="#4A4A4A" fill-rule="evenodd"><path d="M447.384 0c22.888 0 42 11.135 51.89 28.354V2.97h51.51l5.413 13.795 4.017-13.795h53.159v23.982s-3.044.868-3.89 2.25c-.825 1.368-.677 5.73-.677 5.73l7.4 47.455c.313 1.545.874 3.189 2.2 4.372 1.54 1.378 3.594 1.103 3.594 1.103v27.378l-134.27.042v-13.455S469.392 118 445.734 118c-30.28 0-50.536-22.327-50.536-22.327v19.568H359.59c-31.583 0-58.676-17.287-66.395-48.813v-.042c-1.944-13.589-2.636-25.128 6.936-41.385.037-.064.048-.148.084-.212.041.073.086.138.127.212C311.434 10.012 326.692.17 348.468.17c22.402 0 38.275 8.295 47.323 22.072C408.438 7.069 428.76 0 447.384 0zm64.331 13.056v6.495s3.944.987 4.68 2.16c.701 1.114.07 3.557.07 3.557l-10.538 65.499s-.28 2.518-1.953 4.464C502.3 97.188 500 97.544 500 97.544v6.41h28.893V97.96s-2.799 0-4.332-2.233c-1.119-1.624-.838-4.608-.838-4.608l7.253-49.668 14.379 42.138h17.576l14.514-44.923s7.947 50.784 8.228 53.014c.273 2.23-.135 3.066-1.115 4.46-.983 1.404-3.912 1.822-3.912 1.822V104H614v-5.627s-2.659-1.26-3.212-2.785c-.558-1.533-.835-2.788-1.116-5.022-.28-2.23-9.211-62.784-9.487-65.007-.278-2.242-.278-3.353.979-4.89 1.03-1.255 3.339-2.233 3.339-2.233V13h-34.74L556.93 50.11l-12-37.054h-33.214zM445.505 108C475.459 108 497 85.84 497 58.877 497 31.896 474.903 11 445.505 11 416.094 11 394 31.894 394 58.877 394 85.84 415.535 108 445.505 108zM390 28.458S376.243 10.998 353.461 11C329.93 11 304 27.595 304 57.487 304 76.983 323.178 104 357.629 104h28.905V81.44h-5.285s-3.254 8.636-18.61 8.636c-26.404 0-34.462-23.959-34.462-37.045 0-13.094 7.502-28.966 24.456-28.966 16.952 0 17.5 11 17.5 13.654 0 2.634-1.526 4.035-1.526 4.596 0 .552.554.685.554.685l1.946 1.67s.973.7 1.665.7c.696 0 1.53-.42 1.53-.42L390 28.457z"/><path d="M197.007 56.985C197.475 26.065 219.99 0 257.061 0 292.866 0 307 27.446 307 27.446l-5.778 43.087v19.605l.21-.549V114h-39.394c-20.983-.002-39.557-8.35-51.427-21.503L219 115H65.336C29.114 114.997 0 90.324 0 58.991 0 27.654 22.686.75 60.297 1.001c47.894.322 61.017 43.661 61.017 43.661L138.039 3.53h38.152l20.816 53.455zM294 28.45S280.25 10.999 257.463 11C233.934 11 208 27.588 208 57.484 208 76.978 227.175 104 261.63 104h28.896V81.434h-5.277s-3.256 8.64-18.609 8.64c-26.408 0-34.463-23.952-34.463-37.043 0-13.093 7.502-28.974 24.452-28.974 16.95 0 17.502 11.003 17.502 13.654 0 2.64-1.526 4.043-1.526 4.593 0 .564.56.7.56.7l1.941 1.667s.975.7 1.673.7c.691 0 1.526-.421 1.526-.421L294 28.45zM145.738 13l-28.483 77.319s-.694 2.239-2.786 4.33c-1.917 1.922-4.469 2.8-4.469 2.8V104h28.06v-6.55s-3.262-.343-4.193-2.663c-.558-1.39-.558-3.63 0-5.022.564-1.392 6.423-17.024 6.423-17.024h28.605s5.873 15.488 6.708 17.446c.835 1.955.835 3.49-.28 5.443-1.12 1.958-3.348 1.672-3.348 1.672V104H207v-6.55s-3.35-1.122-4.743-2.8c-1.393-1.666-2.79-3.632-3.625-5.718L169.603 13h-23.865zM97 28.45S83.25 10.999 60.463 11C36.934 11 11 27.588 11 57.484 11 76.978 30.175 104 64.63 104h28.896V81.434h-5.277s-3.256 8.64-18.609 8.64c-26.408 0-34.463-23.952-34.463-37.043 0-13.093 7.502-28.974 24.452-28.974 16.95 0 17.502 11.003 17.502 13.654 0 2.64-1.526 4.043-1.526 4.593 0 .564.56.7.56.7l1.941 1.667s.975.7 1.673.7c.691 0 1.526-.421 1.526-.421L97 28.45z"/></g></svg>